<?xml version="1.0" encoding="UTF-8" standalone="no"?>
<!-- Created with Inkscape (http://www.inkscape.org/) -->

<svg
   width="793.70081"
   height="1122.5197"
   viewBox="0 0 210 296.99999"
   version="1.1"
   id="svg1"
   xml:space="preserve"
   inkscape:version="1.4.2 (ebf0e940, 2025-05-08)"
   sodipodi:docname="weaven.svg"
   xmlns:inkscape="http://www.inkscape.org/namespaces/inkscape"
   xmlns:sodipodi="http://sodipodi.sourceforge.net/DTD/sodipodi-0.dtd"
   xmlns="http://www.w3.org/2000/svg"
   xmlns:svg="http://www.w3.org/2000/svg"><sodipodi:namedview
     id="namedview1"
     pagecolor="#ffffff"
     bordercolor="#000000"
     borderopacity="0.25"
     inkscape:showpageshadow="2"
     inkscape:pageopacity="0.0"
     inkscape:pagecheckerboard="0"
     inkscape:deskcolor="#d1d1d1"
     inkscape:document-units="px"
     inkscape:zoom="0.90509668"
     inkscape:cx="420.94951"
     inkscape:cy="582.25824"
     inkscape:window-width="1680"
     inkscape:window-height="1055"
     inkscape:window-x="51"
     inkscape:window-y="34"
     inkscape:window-maximized="1"
     inkscape:current-layer="layer1" /><defs
     id="defs1" /><g
     inkscape:label="Layer 1"
     inkscape:groupmode="layer"
     id="layer1"><g
       id="g1"
       transform="matrix(0.26458333,0,0,0.26458333,19.871413,30.645155)"
       inkscape:label="logo"><path
         fill="#c2355f"
         opacity="1"
         stroke="none"
         d="m 327.98869,97.506507 c 1.22534,-1.596965 2.20184,-2.945803 2.87134,-3.870526 59.79507,59.793809 118.88104,118.878529 177.79693,177.793209 -16.14712,16.08235 -32.74554,32.61418 -49.78506,49.58534 -20.76413,-20.84073 -41.79346,-41.94761 -63.00296,-63.23538 -42.4231,42.49645 -84.72009,84.86661 -126.70457,126.92368 -16.96114,-16.95884 -33.42072,-33.4162 -49.74071,-49.73401 41.85725,-41.8264 84.20242,-84.14035 126.68094,-126.58758 -21.96729,-21.94062 -43.10651,-43.05416 -64.54322,-64.46486 15.83429,-15.82855 31.00638,-30.99515 46.42731,-46.409873 z"
         id="path2"
         style="display:inline" /><path
         fill="#f0984b"
         opacity="1"
         stroke="none"
         d="M 110.67521,415.17887 C 99.42197,426.5355 88.419147,437.64191 77.774169,448.38715 60.781131,431.47202 44.198888,414.96577 27.858046,398.69984 86.636058,339.93111 145.63087,280.94564 204.23124,222.35456 c 16.21639,16.25314 32.74676,32.82098 49.67513,49.78775 -20.52617,20.38287 -41.75754,41.46603 -63.26265,62.82103 42.74934,42.69334 85.05888,84.94749 127.2244,127.05782 -16.6359,16.63754 -33.06824,33.07153 -49.49584,49.50076 -41.94713,-41.96445 -84.27682,-84.31165 -127.25699,-127.30957 -10.64969,10.83551 -20.41968,20.77594 -30.44008,30.96652 z"
         id="path3"
         style="display:inline" /><path
         fill="#5aa0d6"
         opacity="1"
         stroke="none"
         d="m 342.99183,565.49235 c -8.32232,8.17694 -16.39471,16.10376 -24.41058,23.97506 21.51087,21.50669 42.55933,42.55112 63.26727,63.25504 -17.15973,17.10809 -33.70471,33.60327 -49.91388,49.76361 -58.42718,-58.41797 -117.39717,-117.37863 -176.29866,-176.27084 16.22979,-15.88456 32.84346,-32.14487 49.37969,-48.32938 20.08739,20.09839 41.10457,41.12711 61.85985,61.89374 43.08088,-43.11875 85.40895,-85.48401 127.22984,-127.34165 17.56921,17.54187 34.09876,34.04563 51.10559,51.02601 -33.643,33.57998 -67.80609,67.67913 -102.21912,102.02841 z"
         id="path4"
         style="display:inline" /><path
         fill="#98c456"
         opacity="1"
         stroke="none"
         d="m 375.28303,364.41212 c -9.97839,-9.80518 -19.70666,-19.36046 -29.20666,-28.69153 17.02218,-17.00839 33.49078,-33.46363 50.29791,-50.2571 42.07382,42.12486 84.40378,84.50615 127.31574,127.47017 21.55386,-21.5979 42.57992,-42.6669 63.36062,-63.49011 16.51447,16.56833 32.84259,32.94974 48.706,48.86487 -58.66144,58.65686 -117.83725,117.82806 -176.82944,176.81564 -15.61255,-15.65893 -32.05194,-32.14712 -48.5524,-48.69659 20.97818,-20.80881 42.11346,-41.77344 63.73737,-63.22278 -33.38987,-33.37757 -65.98444,-65.96015 -98.82914,-98.79257 z"
         id="path5"
         style="display:inline" /><path
         fill="#5ba1d6"
         opacity="1"
         stroke="none"
         d="m 491.49229,353.20347 c -6.15811,-6.0586 -12.06888,-11.86454 -17.66546,-17.36185 16.97708,-16.96091 33.41894,-33.38712 49.32861,-49.28163 16.07031,16.0753 32.57593,32.58601 49.15253,49.16777 -15.84803,15.72333 -32.46546,32.20996 -49.48734,49.0979 -10.06106,-10.15445 -20.57104,-20.76196 -31.32834,-31.62219 z"
         id="path6"
         style="display:inline" /><path
         fill="#e8d04a"
         opacity="1"
         stroke="none"
         d="m 291.18974,389.69297 c 13.63641,-13.65839 27.02295,-27.06619 39.82337,-39.8869 16.77273,16.76718 33.27822,33.26721 49.74286,49.72638 -15.66117,15.53595 -32.24872,31.99087 -48.50406,48.11624 -16.04816,-16.04914 -32.47657,-32.47855 -49.47715,-49.48016 2.42093,-2.43867 5.29303,-5.33179 8.41498,-8.47556 z"
         id="path7"
         style="display:inline" /><path
         fill="#99c557"
         opacity="1"
         stroke="none"
         d="m 231.27565,220.41941 c -4.47995,-4.23831 -8.70973,-8.22675 -12.65235,-11.94441 17.19458,-17.10428 33.76477,-33.58748 50.16936,-49.90592 15.91869,15.85057 32.42732,32.28856 48.83577,48.62679 -16.37109,16.30751 -32.85312,32.72554 -49.87555,49.6819 -11.81764,-11.81159 -24.02235,-24.01006 -36.47723,-36.45836 z"
         id="path8"
         style="display:inline" /><path
         fill="#c2355e"
         opacity="1"
         stroke="none"
         d="m 178.92992,474.43089 c -12.81751,12.86511 -25.38396,25.48126 -37.70606,37.85211 -16.73857,-16.74207 -33.27772,-33.28461 -49.666263,-49.67658 16.423963,-16.29053 33.045853,-32.7774 49.475903,-49.07397 15.94793,15.86932 32.45843,32.29846 49.44492,49.20123 -3.69678,3.74612 -7.4971,7.59717 -11.5485,11.69721 z"
         id="path9"
         style="display:inline" /><path
         fill="#f0984b"
         opacity="1"
         stroke="none"
         d="m 399.77284,636.30588 c -1.33014,1.26935 -2.40784,2.28882 -2.97525,2.82563 -16.70062,-16.61334 -33.26968,-33.09583 -49.6459,-49.38654 15.80331,-15.86291 32.22244,-32.34396 48.2275,-48.40939 16.35135,16.34119 32.89823,32.87781 49.85544,49.82449 -14.56018,14.45929 -29.88473,29.67761 -45.46179,45.14581 z"
         id="path10"
         style="display:inline" /></g></g></svg>
